<svg width="20" height="20" viewBox="0 0 20 20" fill="none" xmlns="http://www.w3.org/2000/svg">
<path d="M19.4062 17.8125L13.9375 13.375C14.9375 12.0625 15.5 10.4687 15.5 8.78125C15.5 6.75 14.7187 4.875 13.2812 3.4375C10.3437 0.5 5.5625 0.5 2.59375 3.4375C1.1875 4.84375 0.40625 6.75 0.40625 8.75C0.40625 10.7812 1.1875 12.6562 2.625 14.0937C4.09375 15.5625 6.03125 16.3125 7.96875 16.3125C9.875 16.3125 11.75 15.5937 13.2187 14.1875L18.75 18.6562C18.8437 18.75 18.9687 18.7812 19.0937 18.7812C19.25 18.7812 19.4062 18.7187 19.5312 18.5937C19.6875 18.3437 19.6562 18 19.4062 17.8125ZM3.375 13.3437C2.15625 12.125 1.5 10.5 1.5 8.75C1.5 7 2.15625 5.40625 3.40625 4.1875C4.65625 2.9375 6.3125 2.3125 7.96875 2.3125C9.625 2.3125 11.2812 2.9375 12.5312 4.1875C13.75 5.40625 14.4375 7.03125 14.4375 8.75C14.4375 10.4687 13.7187 12.125 12.5 13.3437C10 15.8437 5.90625 15.8437 3.375 13.3437Z" fill="white"/>
</svg>
